<?xml version="1.0" encoding="UTF-8" standalone="no"?>
<!DOCTYPE svg PUBLIC "-//W3C//DTD SVG 1.1//EN" "http://www.w3.org/Graphics/SVG/1.1/DTD/svg11.dtd">
<svg width="100%" height="100%" viewBox="0 0 678 153" version="1.1" xmlns="http://www.w3.org/2000/svg" style="fill-rule:evenodd;clip-rule:evenodd;stroke-linejoin:round;stroke-miterlimit:2;">
    <path d="M550.12,118.28l-6.6,12.48l7.32,15.32l-8,-0l-5.56,-11.8l-2.64,-0l-0,11.8l-7.4,-0l-0,-27.8l7.4,-0l-0,10.72l2.8,-0l5.48,-10.72l7.2,-0Z" style="fill:#d7d7d9;"/>
    <path d="M568.56,131.36c1.867,0.373 3.373,1.053 4.52,2.04c1.147,0.987 1.72,2.493 1.72,4.52c-0,3.013 -1.093,5.127 -3.28,6.34c-2.187,1.213 -5.24,1.82 -9.16,1.82l-9.36,-0l-0,-27.8l8.28,-0c4,-0 7.06,0.553 9.18,1.66c2.12,1.107 3.18,2.94 3.18,5.5c-0,1.627 -0.487,2.927 -1.46,3.9c-0.973,0.973 -2.18,1.647 -3.62,2.02Zm-8.16,-7.92l-0,5.8l1.92,-0c1.307,-0 2.267,-0.24 2.88,-0.72c0.613,-0.48 0.92,-1.253 0.92,-2.32c-0,-0.987 -0.327,-1.693 -0.98,-2.12c-0.653,-0.427 -1.713,-0.64 -3.18,-0.64l-1.56,-0Zm2,17.36c1.573,-0 2.76,-0.233 3.56,-0.7c0.8,-0.467 1.2,-1.34 1.2,-2.62c-0,-1.227 -0.373,-2.113 -1.12,-2.66c-0.747,-0.547 -1.827,-0.82 -3.24,-0.82l-2.4,-0l-0,6.8l2,-0Z" style="fill:#d7d7d9;"/>
    <path d="M592.56,146.08l-1.24,-5.68l-7.36,-0l-1.24,5.68l-7.68,-0l8.24,-27.8l8.88,-0l8.24,27.8l-7.84,-0Zm-7.44,-10.96l5.04,-0l-2.52,-11.56l-2.52,11.56Z" style="fill:#d7d7d9;"/>
    <path d="M625.32,140.48l-0,12.4l-5,-0l-0.76,-6.8l-14.32,-0l-0.76,6.8l-5,-0l-0,-12.4l2.08,-0c0.747,-0.907 1.353,-2.28 1.82,-4.12c0.467,-1.84 0.967,-4.88 1.5,-9.12l1.12,-8.96l16.8,-0l-0,22.2l2.52,-0Zm-9.64,-16.84l-3.48,-0l-0.28,2.8c-0.427,4.187 -0.98,7.313 -1.66,9.38c-0.68,2.067 -1.647,3.62 -2.9,4.66l8.32,-0l-0,-16.84Z" style="fill:#d7d7d9;"/>
    <path d="M637.56,118.28c3.733,-0 6.633,0.78 8.7,2.34c2.067,1.56 3.1,3.847 3.1,6.86c-0,3.147 -1,5.54 -3,7.18c-2,1.64 -4.693,2.46 -8.08,2.46l-2.84,-0l-0,8.96l-7.4,-0l-0,-27.8l9.52,-0Zm0.04,13.56c1.387,-0 2.433,-0.347 3.14,-1.04c0.707,-0.693 1.06,-1.787 1.06,-3.28c0,-2.693 -1.453,-4.04 -4.36,-4.04l-2,-0l0,8.36l2.16,-0Z" style="fill:#d7d7d9;"/>
    <path d="M664.28,117.56c4.027,-0 7.16,1.28 9.4,3.84c2.24,2.56 3.36,6.147 3.36,10.76c0,3.013 -0.5,5.62 -1.5,7.82c-1,2.2 -2.46,3.887 -4.38,5.06c-1.92,1.173 -4.213,1.76 -6.88,1.76c-4.027,-0 -7.153,-1.28 -9.38,-3.84c-2.227,-2.56 -3.34,-6.16 -3.34,-10.8c0,-3.013 0.5,-5.613 1.5,-7.8c1,-2.187 2.453,-3.867 4.36,-5.04c1.907,-1.173 4.193,-1.76 6.86,-1.76Zm-0,5.32c-1.733,-0 -3.007,0.72 -3.82,2.16c-0.813,1.44 -1.22,3.813 -1.22,7.12c0,3.307 0.413,5.687 1.24,7.14c0.827,1.453 2.093,2.18 3.8,2.18c1.76,-0 3.04,-0.72 3.84,-2.16c0.8,-1.44 1.2,-3.827 1.2,-7.16c0,-3.307 -0.4,-5.68 -1.2,-7.12c-0.8,-1.44 -2.08,-2.16 -3.84,-2.16Z" style="fill:#d7d7d9;"/>
    <path d="M189.4,0c10.96,0 19.48,2.28 25.56,6.84c6.08,4.56 9.12,11.32 9.12,20.28c-0,9.36 -2.98,16.42 -8.94,21.18c-5.96,4.76 -13.94,7.14 -23.94,7.14l-9,0l-0,28.193l-19.68,0l-0,-83.633l26.88,0Zm0.12,41.28c4.64,0 8.18,-1.1 10.62,-3.3c2.44,-2.2 3.66,-5.82 3.66,-10.86c-0,-8.72 -4.88,-13.08 -14.64,-13.08l-6.96,0l-0,27.24l7.32,0Z" style="fill:#fff;"/>
    <path d="M343.68,83.16l-0,-35.64l-24.96,0l-0,35.64l-19.68,0l-0,-83.16l19.68,0l-0,32.16l24.96,0l-0,-32.16l19.68,0l-0,83.16l-19.68,0Z" style="fill:#fff;"/>
    <path d="M657.36,83.16l-0,-35.64l-24.96,0l-0,35.64l-19.68,0l-0,-83.16l19.68,0l-0,32.16l24.96,0l-0,-32.16l19.68,0l-0,83.16l-19.68,0Z" style="fill:#fff;"/>
    <path d="M600.04,-0l-23.99,-0l-20.79,57.12l-0,-57.12l-19.3,-0l-0,83.633l22.65,0l22.13,-60.801l-0,60.801l19.3,0l-0,-83.633Z" style="fill:#fff;"/>
    <path d="M79.439,68.641l-0.079,-0.481l9.12,0c1.68,-1.92 3.06,-4.38 4.14,-7.38c1.08,-3 2.08,-7.1 3,-12.3c0.92,-5.2 2.02,-12.64 3.3,-22.32l3.24,-26.16l44.48,-0l-0,68.16l7.32,0l-0,15.473l-51.691,0l0.087,19.447l-13.042,0l-9.875,-34.439Zm48.121,-54.121l-8.84,0l-0.96,9.96c-0.96,9.28 -2.02,16.68 -3.18,22.2c-1.16,5.52 -2.56,9.94 -4.2,13.26c-1.64,3.32 -3.78,6.06 -6.42,8.22l23.6,0l-0,-53.64Z" style="fill:#fff;"/>
    <path d="M504.261,-0l23.981,83.633l-19.3,0l-18.909,-65.944l-18.909,65.944l-19.3,0l23.981,-83.633l28.456,-0Z" style="fill:#fff;"/>
    <path d="M52.437,-0l23.982,83.633l-19.3,0l-2.333,-8.133l-25.154,-0l4.101,-14.3l16.953,-0l-12.477,-43.511l-18.909,65.944l-19.3,0l23.981,-83.633l28.456,-0Z" style="fill:#fff;"/>
    <path d="M421.237,-0l23.982,83.633l-19.3,0l-2.333,-8.133l-25.154,-0l4.101,-14.3l16.953,-0l-12.477,-43.511l-18.909,65.944l-19.3,0l23.981,-83.633l28.456,-0Z" style="fill:#fff;"/>
    <path d="M275.772,47.76l-21.372,-0l-0,21.24l31.32,0l-0,14.16l-51,0l-0,-83.16l51,0l-0,0.021l-4.02,14.019l-27.3,0l-0,19.92l25.329,0l-3.957,13.8Z" style="fill:#fff;"/>
    <path d="M270.565,96.327l208.788,-0l7.567,-25.151l5.653,0l10.647,35.33l3.007,-10.179l170.813,-0l-0,8.54l-165.675,-0l-4.265,14.512l-1.09,3.621l-5.653,0l-10.676,-35.445l-5.19,17.312l-208.788,-0l-4.265,14.512l-1.09,3.621l-5.653,0l-5.461,-18.133l-45.506,-0l-5.214,-17.312l-5.19,17.312l-63.496,-0l-4.311,-15.033l-0.038,-0.365l13.845,-0l2.066,6.858l46.796,-0l7.567,-25.151l5.653,0l7.579,25.151l45.506,-0l3.067,10.179l3.007,-10.179Z" style="fill:#f24b0f;"/>
</svg>
