<?xml version="1.0" encoding="UTF-8" standalone="no"?>
<!DOCTYPE svg PUBLIC "-//W3C//DTD SVG 1.1//EN" "http://www.w3.org/Graphics/SVG/1.1/DTD/svg11.dtd">
<svg width="100%" height="100%" viewBox="0 0 500 52" version="1.1" xmlns="http://www.w3.org/2000/svg" xml:space="preserve" style="fill-rule:evenodd;clip-rule:evenodd;stroke-linejoin:round;stroke-miterlimit:2;">
    <rect x="0.039" y="0" width="499.961" height="35" style="fill:#262626;"/>
    <path d="M499.561,30l-169.561,-0l-4.554,13.229l-13.289,-30.944l-7.157,17.715l-210,-0l-5,12.554l-5,-12.554l-45,-0l-7.925,-24.271l-9.073,24.271l-23.402,-0l-0,22l499.961,-0l-0,-22Z" style="fill:#727273;"/>
    <path d="M-0.4,25.151l21.107,0l7.568,-25.151l5.652,0l7.58,25.151l45.505,0l3.068,10.179l3.006,-10.179l208.788,0l7.568,-25.151l5.653,0l10.647,35.33l3.006,-10.179l170.813,0l-0,8.54l-165.675,0l-4.265,14.512l-1.089,3.621l-5.653,0l-10.676,-35.445l-5.19,17.312l-208.788,0l-4.266,14.512l-1.089,3.621l-5.653,0l-5.462,-18.133l-45.505,0l-5.214,-17.312l-5.191,17.312l-26.245,0l0,-8.54Z" style="fill:#f24b0f;"/>
</svg>
