<?xml version="1.0" encoding="UTF-8" standalone="no"?>
<!DOCTYPE svg PUBLIC "-//W3C//DTD SVG 1.1//EN" "http://www.w3.org/Graphics/SVG/1.1/DTD/svg11.dtd">
<svg width="100%" height="100%" viewBox="0 0 800 140" fill="#727273" version="1.1" xmlns="http://www.w3.org/2000/svg" xml:space="preserve" style="fill-rule:evenodd;clip-rule:evenodd;stroke-linejoin:round;stroke-miterlimit:2;">
    <path d="M42.149,0.031c6.829,-0.045 13.661,-0.005 20.491,-0.02l94.488,0c3.929,-0.132 7.953,0.903 11.143,3.248c1.998,1.442 3.623,3.372 4.764,5.55c1.89,3.6 2.314,7.853 1.567,11.82c-5.41,30.07 -10.824,60.142 -16.243,90.211c-0.505,2.784 -0.996,5.572 -1.512,8.354c-0.971,4.663 -3.443,8.953 -6.793,12.317c-4.465,4.52 -10.615,7.534 -17.025,7.643c-37.573,0.001 -75.147,-0 -112.721,-0c-1.363,-0.018 -2.731,0.057 -4.089,-0.095c-2.506,-0.234 -4.981,-0.962 -7.157,-2.24c-2.483,-1.419 -4.561,-3.536 -5.958,-6.03c-2.031,-3.595 -2.557,-7.909 -1.865,-11.947c5.902,-32.786 11.803,-65.572 17.715,-98.356c0.812,-4.468 3.021,-8.627 6.066,-11.972c4.371,-4.825 10.567,-8.159 17.129,-8.483Zm50.895,43.628c-2.525,0.811 -5.01,1.853 -7.182,3.396c-0.968,0.711 -1.907,1.51 -2.536,2.548c-0.569,0.885 -0.786,2.031 -0.409,3.033c0.409,1.14 1.33,1.995 2.278,2.7c1.942,1.406 4.218,2.216 6.393,3.177c10.133,4.356 20.266,8.713 30.398,13.072c2.776,1.223 5.181,3.402 6.429,6.193c1.182,2.558 1.309,5.573 0.381,8.231c-0.729,2.186 -2.088,4.122 -3.742,5.709c-3.285,3.161 -7.231,5.542 -11.284,7.585c-2.671,1.326 -5.413,2.525 -8.239,3.486c-5.558,1.89 -11.325,3.114 -17.134,3.934c-6.14,0.833 -12.364,1.235 -18.553,0.793c-9.172,-0.773 -18.268,-2.758 -26.838,-6.141c-5.249,-2.103 -10.302,-4.742 -14.867,-8.094c-0.521,-0.414 -1.343,-0.346 -1.764,0.18c-0.186,0.592 0.248,1.077 0.684,1.406c2.257,2.05 4.662,3.926 7.056,5.81c6.151,4.836 13.393,8.104 20.834,10.402c5.751,1.76 11.675,2.935 17.653,3.586c6.726,0.728 13.528,0.811 20.266,0.164c11.318,-1.026 22.462,-4.33 32.377,-9.912c4.502,-2.545 8.77,-5.575 12.396,-9.278c3.337,-3.389 5.869,-7.532 7.535,-11.978c2.153,-5.793 2.873,-12.163 1.762,-18.259c-0.813,-4.512 -2.778,-8.846 -5.858,-12.262c-3.262,-3.688 -7.556,-6.315 -12.051,-8.233c-5.357,-2.309 -11.197,-3.308 -17.002,-3.551c-6.391,-0.218 -12.861,0.393 -18.983,2.303Zm-7.507,-20.248c-4.263,0.258 -8.515,0.759 -12.705,1.595c-9.67,1.968 -19.05,5.599 -27.317,11.019c-3.993,2.658 -7.772,5.737 -10.766,9.511c-3.232,4.129 -5.48,9.004 -6.627,14.116c-1.227,5.53 -1.207,11.402 0.496,16.832c1.112,3.585 3.064,6.904 5.666,9.61c2.328,2.43 5.121,4.378 8.087,5.951c2.253,1.173 4.594,2.187 7.018,2.949c2.812,0.876 5.71,1.455 8.633,1.808c6.151,0.721 12.416,0.521 18.502,-0.637c3.246,-0.635 6.458,-1.546 9.443,-2.987c1.564,-0.779 3.089,-1.692 4.348,-2.916c0.896,-0.876 1.673,-2.013 1.682,-3.312c-0.022,-1.165 -0.687,-2.202 -1.52,-2.971c-1.495,-1.395 -3.378,-2.263 -5.237,-3.056c-10.489,-4.516 -20.983,-9.022 -31.473,-13.537c-1.369,-0.546 -2.697,-1.215 -3.861,-2.125c-1.973,-1.52 -3.488,-3.656 -4.172,-6.056c-0.59,-2.085 -0.558,-4.347 0.103,-6.412c0.73,-2.383 2.218,-4.474 4.021,-6.17c1.603,-1.539 3.397,-2.864 5.253,-4.081c3.612,-2.337 7.49,-4.242 11.478,-5.846c3.455,-1.364 7.033,-2.385 10.647,-3.229c6.553,-1.481 13.243,-2.385 19.96,-2.595c5.87,-0.24 11.743,0.4 17.513,1.45c5.858,1.087 11.629,2.685 17.163,4.898c4.991,2 9.798,4.506 14.174,7.643c0.419,0.298 0.844,0.694 1.401,0.66c0.346,-0.042 0.771,-0.174 0.894,-0.541c0.149,-0.352 -0.048,-0.729 -0.301,-0.976c-1.555,-1.423 -3.167,-2.782 -4.824,-4.088c-1.905,-1.51 -3.784,-3.062 -5.821,-4.391c-4.493,-2.988 -9.429,-5.263 -14.508,-7.056c-5.335,-1.862 -10.851,-3.188 -16.435,-4.041c-6.913,-1.055 -13.932,-1.398 -20.915,-1.019Z"/>
    <path d="M194.171,116.68c0.698,-1.314 1.271,-2.811 2.272,-3.894c144.312,-0.04 288.624,-0.007 432.938,-0.017c56.515,0.01 113.034,-0.019 169.552,0.014c-0.61,1.346 -1.41,2.593 -2.113,3.89c-42.872,0.073 -85.749,0.01 -128.631,0.033l-426.563,0c-15.819,-0.016 -31.639,0.03 -47.455,-0.026l0,-0Zm290.696,-86.687c2.725,-0.388 5.487,-0.24 8.235,-0.267c26.224,0.023 52.448,0.033 78.672,0.07c-2.577,4.512 -5.244,8.972 -7.821,13.485c-17.922,0.04 -35.845,-0.026 -53.768,-0.02c-2.847,4.856 -5.701,9.704 -8.521,14.575c9.983,0.047 19.963,0.007 29.946,0.021c4.233,0.075 8.479,-0.159 12.703,0.128c-2.743,4.433 -5.28,9.002 -7.993,13.456c-14.226,0.019 -28.452,-0.043 -42.678,0.033c-2.785,4.871 -5.717,9.661 -8.459,14.558c18.649,0.05 37.306,0.013 55.96,0.04c-2.528,4.535 -5.283,8.946 -7.834,13.472c-23.384,0.086 -46.77,0.01 -70.154,0.03c-3.847,-0.06 -7.748,0.234 -11.533,-0.622c-2.992,-0.645 -6.053,-1.896 -7.986,-4.368c-1.859,-2.387 -2.096,-5.662 -1.382,-8.512c1.066,-4.622 3.871,-8.532 6.178,-12.591c5.536,-9.493 11.122,-18.956 16.679,-28.435c2.34,-4.053 4.98,-8.098 8.765,-10.945c3.167,-2.406 7.06,-3.7 10.991,-4.108l-0,0Zm-125.021,-0.184c36.072,-0.079 72.145,-0.03 108.22,-0.05c-2.594,4.5 -5.247,8.967 -7.847,13.463c-10.237,0.033 -20.473,-0.004 -30.707,0.039c-10.967,18.776 -21.994,37.514 -32.945,56.293c-14.684,0.039 -29.371,0.043 -44.055,-0c6.899,-11.725 13.73,-23.495 20.619,-35.227c4.072,-7.03 8.265,-13.989 12.284,-21.053c-11.066,-0.039 -22.136,-0.006 -33.202,-0.026c2.363,-4.579 5.197,-8.9 7.633,-13.439Zm217.863,0.029c1.497,-0.266 3.077,-0.023 4.608,-0.105c13.061,0.01 26.121,-0.02 39.185,0.017c-10.826,18.798 -21.911,37.451 -32.786,56.22c18.704,0.131 37.414,0.049 56.12,0.135c-2.553,4.522 -5.286,8.949 -7.857,13.465c-23.381,0.043 -46.756,-0.039 -70.136,-0.033c-3.914,-0.036 -7.88,0.218 -11.721,-0.704c-2.92,-0.642 -5.898,-1.909 -7.765,-4.338c-1.55,-1.949 -1.988,-4.576 -1.649,-6.992c0.464,-3.495 2.1,-6.688 3.874,-9.683c9.362,-16.001 18.713,-32.011 28.127,-47.982l-0,0Zm109.31,0.241c2.817,-0.488 5.679,-0.33 8.523,-0.362c34.327,0.039 68.649,-0.027 102.975,0.046c-2.603,4.496 -5.258,8.963 -7.852,13.462c-25.841,0.046 -51.677,0.004 -77.513,0.023c-1.184,2.021 -2.368,4.049 -3.566,6.063c-0.777,1.353 -1.674,2.702 -1.887,4.289c-0.282,1.317 0.296,2.791 1.462,3.506c1.137,0.698 2.52,0.743 3.82,0.75c17.114,0 34.234,0.004 51.353,-0.003c2.761,0.033 5.591,0.493 8,1.916c2.238,1.293 3.959,3.479 4.629,5.987c0.856,3.031 0.218,6.349 -1.336,9.052c-4.819,8.252 -9.679,16.477 -14.474,24.746c-39.358,0.059 -78.721,0.01 -118.088,-0.007c2.576,-4.539 5.258,-9.019 7.931,-13.495c24.694,0.036 49.388,-0.01 74.082,0.006c1.507,-2.538 2.996,-5.079 4.467,-7.633c0.842,-1.475 1.336,-3.397 0.513,-4.983c-0.892,-1.584 -2.871,-2.028 -4.559,-1.992c-15.691,-0.019 -31.386,-0.003 -47.076,-0.01c-2.877,-0.053 -5.785,0.194 -8.625,-0.365c-2.612,-0.566 -5.198,-1.784 -6.867,-3.934c-2.802,-3.307 -2.742,-8.291 -0.758,-11.991c1.563,-2.808 3.26,-5.54 4.846,-8.334c2.52,-4.075 4.574,-8.627 8.379,-11.708c3.279,-2.768 7.39,-4.44 11.621,-5.03l0,0.001Zm-454.734,5.98c4.302,-4.2 10.358,-6.158 16.28,-6.316c3.719,-0.053 7.438,-0.014 11.161,-0.026c31.471,0.049 62.945,-0.04 94.416,0.056c-2.581,4.506 -5.26,8.956 -7.841,13.462c-25.062,0.02 -50.127,0.007 -75.193,0.01c-1.51,2.57 -3.031,5.134 -4.519,7.719c-0.833,1.533 -1.481,3.548 -0.467,5.154c0.935,1.468 2.857,1.748 4.463,1.731c17.225,0.02 34.45,-0.003 51.671,0.01c3.605,-0.01 7.419,0.886 10.069,3.47c2.594,2.491 3.512,6.398 2.676,9.851c-0.335,1.685 -1.139,3.219 -2.034,4.668c-4.605,7.913 -9.279,15.786 -13.864,23.709c-41.701,0.056 -83.402,-0.003 -125.103,-0c2.686,-4.486 5.306,-9.009 7.969,-13.505c27.047,0.01 54.094,0.042 81.141,-0.033c1.474,-2.709 3.136,-5.313 4.615,-8.022c0.746,-1.468 1.069,-3.367 0.131,-4.822c-0.987,-1.376 -2.791,-1.761 -4.391,-1.725c-17.346,-0.023 -34.693,-0.003 -52.036,-0.01c-2.749,-0.046 -5.573,-0.53 -7.933,-2.008c-2.765,-1.646 -4.658,-4.703 -4.77,-7.932c-0.167,-2.429 0.504,-4.862 1.725,-6.952c2.239,-3.818 4.474,-7.633 6.715,-11.445c1.435,-2.531 3.028,-5.006 5.119,-7.044l-0,0Z"/>
</svg>
