<?xml version="1.0" encoding="UTF-8" standalone="no"?>
<!DOCTYPE svg PUBLIC "-//W3C//DTD SVG 1.1//EN" "http://www.w3.org/Graphics/SVG/1.1/DTD/svg11.dtd">
<svg width="100%" height="100%" viewBox="0 0 518 91" fill="#727273" version="1.1" xmlns="http://www.w3.org/2000/svg" xml:space="preserve" style="fill-rule:evenodd;clip-rule:evenodd;stroke-linejoin:round;stroke-miterlimit:2;">
    <path d="M73.2,82.397l-0.001,-0.002l0.001,0.002l-8.574,-8.914l-4.269,3.985l-11.658,-13.002l-16.221,18.903l10.749,-35.929l-11.653,-13.665l15.741,0l8.147,-27.228l6.522,27.228l15.656,0l-12.395,13.612l6.346,27.93l20.197,0l-16.538,-69.958c-0.675,-3.003 -3.673,-5.359 -6.817,-5.359l-38.218,0c-2.306,0 -4.181,1.284 -4.797,3.288l-25.273,82.09c-0.767,2.491 1.627,5.33 4.494,5.33l90.647,0l-1.888,-8.311l-20.198,0" />
    <path d="M177.658,61.273c-0,5.396 -3.617,9.812 -8.036,9.812l-44.769,0c-4.42,0 -8.037,-4.416 -8.037,-9.812l-0,-31.838c-0,-5.398 3.617,-9.813 8.037,-9.813l44.769,0c4.419,0 8.036,4.415 8.036,9.813l-0,31.838Zm0.971,-61.273l-62.784,-0c-10.312,-0 -18.75,10.301 -18.75,22.893l-0,44.922c-0,12.591 8.438,22.893 18.75,22.893l62.784,-0c10.313,-0 18.749,-10.302 18.749,-22.893l-0,-44.922c-0,-12.592 -8.436,-22.893 -18.749,-22.893"/>
    <path d="M285.363,0l-81.533,0l0,19.622l72.527,0c4.438,0 8.034,4.395 8.034,9.813l0,31.838c0,5.419 -3.596,9.812 -8.034,9.812l-52.807,0l0,-39.151l-19.72,0l0,58.774l81.533,0c10.356,0 18.751,-10.25 18.751,-22.895l0,-44.92c0,-12.644 -8.395,-22.893 -18.751,-22.893" />
    <path d="M330.286,61.273l0,-6.546l80.563,0l0,-18.746l-80.563,0l0,-6.546c0,-5.42 3.599,-9.813 8.036,-9.813l72.527,0l0,-19.622l-81.535,0c-10.356,0 -18.749,10.249 -18.749,22.893l0,44.922c0,12.643 8.393,22.893 18.749,22.893l81.535,-0l0,-19.623l-72.527,-0c-4.437,-0 -8.036,-4.393 -8.036,-9.812" />
    <path d="M517.583,19.622l0,-19.622l-92.249,0c-4.436,0 -8.035,4.392 -8.035,9.811l0,35.11c0,5.419 3.599,9.811 8.035,9.811l72.527,0l0,16.353l-80.562,0l0,19.623l92.248,0c4.438,0 8.036,-4.393 8.036,-9.812l0,-35.11c0,-5.418 -3.598,-9.811 -8.036,-9.811l-72.525,0l0,-16.353l80.561,0" />
</svg>
