<?xml version="1.0" encoding="UTF-8" standalone="no"?>
<!DOCTYPE svg PUBLIC "-//W3C//DTD SVG 1.1//EN" "http://www.w3.org/Graphics/SVG/1.1/DTD/svg11.dtd">
<svg width="100%" height="100%" viewBox="0 0 961 1000" fill="#727273" version="1.1" xmlns="http://www.w3.org/2000/svg" xml:space="preserve" style="fill-rule:evenodd;clip-rule:evenodd;stroke-linejoin:round;stroke-miterlimit:2;">
    <path d="M138.27,417.3c3.261,-8.426 4.87,-10.6 7.561,-11.909c1.76,-0.978 123.106,-25.423 125.062,-25.814c6.062,-0.978 6.649,-1.956 5.671,-9.779c-1.76,-12.613 -4.693,-16.036 -5.867,-6.551c-0.684,4.987 -4.4,11.832 -5.671,10.267c-0.391,-0.391 -1.271,-2.738 -2.053,-5.182c-4.498,-15.548 -10.267,-22.783 -26.89,-33.344c-15.743,-10.071 -31.095,-17.992 -40.091,-20.827c-10.267,-3.129 -15.449,-4.498 -17.209,-4.498c-4.4,-0 -22.392,-5.476 -27.868,-8.409c-6.356,-3.52 -12.418,-8.996 -14.667,-13.201c-0.685,-1.467 -1.76,-4.693 -2.347,-7.236c-1.564,-7.138 -0.489,-7.724 8.8,-4.4c26.597,9.387 59.354,10.365 77.248,2.347c6.356,-2.836 12.418,-8.605 15.156,-14.374c1.564,-3.422 1.564,-3.52 -0.587,-6.551c-4.204,-5.672 -10.071,-7.432 -29.041,-8.703c-17.112,-1.075 -22.001,-2.151 -19.849,-4.302c1.662,-1.663 17.502,-3.716 32.952,-4.303c13.298,-0.489 13.983,-0.391 18.676,1.956c5.671,2.933 10.756,7.823 12.614,12.125c2.151,4.987 1.662,12.711 -1.173,19.361c-4.498,10.462 -4.694,11.147 -4.009,11.831c0.391,0.391 4.106,0.782 8.213,0.88c9.681,0.294 9.974,0.294 25.815,8.018c10.951,5.183 14.569,6.454 19.556,6.845c7.431,0.587 14.569,-0.978 14.569,-3.325c0,-0.782 -1.858,-5.475 -4.009,-10.462c-5.964,-13.103 -8.702,-24.054 -5.964,-24.054c0.293,-0 2.249,1.662 4.302,3.617c2.053,1.956 3.911,3.325 4.302,3.032c0.294,-0.391 -0.684,-3.814 -2.151,-7.823c-2.151,-5.769 -2.738,-8.8 -2.738,-15.449c0,-7.334 0.391,-8.996 3.031,-14.179c3.227,-6.258 7.236,-10.853 13.397,-15.351c7.04,-5.085 9.778,-3.032 5.28,4.204c-1.467,2.445 -2.738,4.792 -2.738,5.183c-0,1.466 3.129,0.293 6.16,-2.347c1.858,-1.565 6.16,-4.4 9.68,-6.356c7.334,-3.911 12.028,-4.4 19.459,-1.76c5.476,1.956 6.649,1.369 4.693,-2.347c-0.684,-1.564 -1.466,-3.031 -1.662,-3.52c-0.782,-1.564 4.596,-0.586 7.627,1.467c3.031,2.053 9.68,9.387 15.645,17.209c2.738,3.618 4.889,3.521 6.649,-0.293c1.467,-3.227 13.885,-16.134 15.45,-16.134c2.249,0 1.564,3.227 -2.151,10.267c-1.956,3.618 -3.129,6.943 -2.641,7.334c0.392,0.489 3.032,-0.196 5.672,-1.565c9.974,-4.791 10.951,-2.053 2.835,8.018c-7.529,9.387 -11.147,17.699 -9.191,20.926c0.782,1.271 1.369,1.173 4.107,-0.391c10.56,-6.258 17.209,-8.116 18.872,-5.378c0.391,0.488 -1.956,3.52 -5.281,6.551c-6.258,5.965 -9.289,11.44 -10.364,18.97c-0.783,5.084 0.097,10.56 1.662,10.56c0.587,-0 4.498,-1.76 8.8,-3.911c5.574,-2.738 9.094,-3.912 11.93,-3.814c4.595,0 10.853,1.956 10.853,3.227c0,0.489 -4.302,2.836 -9.582,5.085c-10.463,4.498 -17.21,9.191 -21.512,14.765c-3.716,4.986 -2.054,6.16 3.911,2.64c5.574,-3.325 9.876,-4.498 12.223,-3.227c1.564,0.782 1.564,1.173 -0.391,5.378c-2.934,6.747 -1.467,7.236 7.724,2.64c4.205,-2.151 10.659,-4.987 14.374,-6.16c6.258,-2.054 7.823,-2.151 19.654,-1.565c15.059,0.783 18.481,0.294 17.112,-2.346c-0.489,-0.978 -3.129,-2.836 -5.867,-4.01c-5.964,-2.737 -6.258,-5.084 -0.684,-5.573c4.889,-0.391 13.005,2.053 22.587,6.845c10.952,5.475 15.254,6.942 15.254,5.182c0,-0.782 -1.955,-3.031 -4.4,-5.085c-6.845,-5.671 -5.574,-7.724 3.813,-6.16c2.934,0.489 7.53,1.76 10.268,2.934c5.769,2.542 7.431,2.151 8.213,-1.663c1.369,-7.138 7.334,-10.071 20.143,-10.071c3.911,-0 6.943,-0.391 6.943,-0.978c-0,-0.489 -1.76,-2.151 -3.912,-3.52c-2.151,-1.467 -3.618,-3.031 -3.324,-3.422c1.075,-1.761 15.351,1.075 21.023,4.106c1.369,0.685 2.933,0.392 6.453,-1.466c4.694,-2.347 25.326,-7.432 27.477,-6.649c2.445,0.782 0.978,4.106 -4.205,9.093c-2.933,2.836 -5.378,5.965 -5.378,6.845c0,1.075 2.836,2.836 9.094,5.573c5.671,2.543 10.463,5.476 13.005,7.921c4.009,3.911 4.107,3.911 12.418,4.107c4.694,0.195 8.801,-0 9.192,-0.392c2.151,-2.249 -13.005,-11.929 -24.641,-15.84c-4.303,-1.467 -5.965,-2.445 -6.16,-3.911c-0.098,-1.076 1.955,-5.476 4.595,-9.681c5.183,-8.116 8.116,-15.743 9.876,-25.423c0.978,-5.769 0.294,-8.311 -1.858,-7.04c-0.586,0.391 -2.64,3.031 -4.595,5.964c-2.347,3.618 -5.281,6.454 -9.192,8.801c-3.129,1.858 -6.062,3.422 -6.551,3.422c-0.489,0 -1.662,-2.542 -2.64,-5.671c-2.836,-9.094 -7.529,-17.699 -12.614,-23.37c-4.889,-5.28 -7.529,-6.551 -7.529,-3.52c-0,0.978 2.249,6.16 4.889,11.538c5.573,11.049 7.333,19.263 4.4,20.436c-1.173,0.392 -3.618,-1.271 -8.605,-6.062c-13.103,-12.516 -17.894,-15.938 -25.032,-17.796c-6.747,-1.76 -7.138,-0.098 -1.467,6.551c2.641,3.129 4.987,5.867 5.281,6.16c1.466,1.272 4.693,6.552 5.084,8.507c0.391,1.271 0,2.64 -0.782,3.325c-1.565,1.271 -4.791,-0.196 -26.597,-12.516c-7.138,-4.009 -15.645,-8.214 -18.871,-9.192c-6.454,-2.053 -17.014,-2.444 -17.992,-0.782c-0.782,1.076 -0.294,1.565 10.365,9.192c8.213,5.867 10.56,8.702 11.342,13.885c0.587,3.422 0.489,3.52 -2.249,3.031c-1.564,-0.294 -7.724,-2.542 -13.591,-4.987c-15.548,-6.454 -34.322,-8.605 -51.336,-5.867c-6.453,1.076 -8.8,0.782 -8.8,-0.88c0,-0.489 2.445,-4.009 5.378,-7.822c4.498,-5.672 5.28,-7.236 4.205,-8.214c-0.783,-0.782 -5.965,-1.369 -14.276,-1.76c-7.138,-0.294 -13.494,-0.782 -13.983,-1.076c-1.956,-1.271 -0.587,-4.107 4.693,-9.485c5.281,-5.378 5.476,-5.769 3.912,-7.333c-1.565,-1.565 -2.152,-1.565 -10.561,0.195c-8.605,1.76 -8.996,1.76 -10.267,0c-1.075,-1.466 -1.075,-2.346 0.196,-5.28c0.782,-1.955 1.271,-4.498 0.978,-5.573c-0.88,-3.129 -8.214,-12.125 -9.974,-12.125c-0.88,-0 -6.258,3.715 -11.832,8.311c-5.671,4.596 -10.853,8.214 -11.44,8.018c-1.467,-0.489 -3.129,-5.769 -4.4,-14.178c-2.054,-13.494 -1.956,-13.983 5.769,-22.294c7.627,-8.214 7.725,-9.094 1.271,-11.832c-5.671,-2.347 -4.302,-3.716 7.92,-8.018c10.463,-3.716 11.343,-4.302 11.343,-8.311c-0,-4.889 1.075,-5.769 5.965,-4.987c4.302,0.587 4.4,0.587 6.453,-3.129c3.227,-5.867 7.138,-18.872 7.138,-23.859c0,-2.542 0.294,-5.28 0.587,-6.16c0.684,-1.76 3.813,-2.151 4.791,-0.587c0.978,1.565 4.987,1.174 6.552,-0.782c0.782,-0.88 3.226,-4.791 5.378,-8.507c5.28,-8.996 13.884,-17.21 20.827,-19.752c2.933,-1.075 6.062,-2.249 6.845,-2.542c2.933,-1.076 12.809,-0.685 16.036,0.684c4.4,1.858 11.342,8.214 11.342,10.463c0,1.76 -7.04,11.049 -11.636,15.352c-3.422,3.129 -11.147,6.551 -19.262,8.507c-3.716,0.88 -8.41,2.64 -10.463,3.813c-7.138,4.107 -23.077,29.139 -23.468,36.766c-0.195,2.738 0.196,3.52 1.858,3.716c3.52,0.488 18.676,-5.672 26.303,-10.756c7.432,-4.987 20.828,-18.383 26.206,-26.206c3.716,-5.476 9.387,-10.951 10.756,-10.462c0.587,0.195 1.467,1.76 1.858,3.52c0.977,3.422 3.226,4.889 4.987,3.129c0.684,-0.685 2.346,-4.792 3.715,-9.192c1.467,-4.302 3.031,-8.116 3.52,-8.213c3.423,-1.174 4.401,16.818 1.369,26.694c-2.933,9.68 -9.68,18.676 -19.654,26.205c-11.538,8.605 -17.209,11.636 -36.668,19.557c-14.276,5.867 -14.667,6.062 -14.96,9.093c-0.294,2.836 0.097,3.423 4.889,6.063c8.996,5.182 18.871,3.911 35.983,-4.791c10.17,-5.085 28.748,-17.699 29.139,-19.752c0.196,-1.076 -0.684,-1.76 -2.64,-2.249c-1.662,-0.391 -3.031,-1.271 -3.031,-1.956c-0,-0.782 3.324,-4.302 7.333,-8.018c16.33,-14.765 20.143,-23.663 18.09,-42.339c-0.391,-3.912 -0.196,-4.401 1.564,-4.694c1.663,-0.195 28.553,12.516 38.037,18.09c51.336,30.116 82.626,53.095 111.471,81.745c11.441,11.343 12.712,12.418 13.885,10.854c0.685,-0.978 1.271,-2.934 1.271,-4.303c0,-2.738 2.054,-7.822 3.129,-7.822c0.392,-0 1.467,1.075 2.445,2.444c14.667,20.828 39.015,47.424 43.415,47.424c0.489,0 0.88,-1.173 0.88,-2.542c0,-1.369 0.489,-3.422 1.076,-4.498c1.075,-1.956 1.369,-1.76 6.747,3.911c3.129,3.227 7.529,7.041 9.778,8.507c5.573,3.52 16.72,7.627 29.236,10.854l10.756,2.738l8.605,-1.662c4.694,-0.978 11.343,-1.663 14.667,-1.565c4.596,0.098 6.845,-0.293 9.583,-1.858c4.791,-2.933 15.058,-5.182 24.445,-5.573c4.303,-0.196 9.583,-0.978 11.734,-1.76c2.151,-0.783 6.258,-2.347 8.996,-3.423c3.031,-1.173 8.996,-2.249 14.667,-2.64c13.005,-0.978 18.579,-2.053 21.512,-4.4c1.369,-1.076 4.009,-2.151 6.063,-2.444c1.955,-0.392 4.497,-1.076 5.573,-1.663c1.173,-0.489 7.334,-1.075 13.689,-1.173c11.441,-0.098 11.636,-0.098 11.93,2.151c0.195,1.271 -0.685,3.618 -1.956,5.378c-2.738,3.716 -62.384,146.77 -62.678,148.335c-0.782,3.715 -3.911,5.671 -11.049,6.942c-3.227,0.489 -65.221,9.994 -68.742,10.874c-3.911,0.978 -2.15,13.669 -2.247,20.025c-0.294,33.343 1.564,190.087 1.662,195.856c0.098,5.867 -0,10.952 -0.391,11.441c-0.782,1.173 -139.241,29.236 -143.837,30.116c-17.894,3.521 -17.307,4.596 5.378,10.17c37.744,9.289 72.847,22.489 96.706,36.179c11.245,6.551 16.232,9.973 25.521,17.796c13.396,11.245 19.752,19.263 21.414,26.988c1.174,5.378 -0.391,6.747 -8.409,7.529c-10.365,0.978 -28.748,5.28 -39.699,9.387c-7.041,2.64 -13.983,6.453 -13.201,7.236c0.294,0.293 8.214,0.586 17.405,0.586l16.819,0l6.649,-3.52c7.431,-3.911 9.485,-3.52 6.942,1.467c-1.369,2.64 -4.987,5.378 -13.787,10.658c-5.084,2.934 -32.366,15.352 -42.73,19.459c-14.179,5.475 -40.286,13.005 -45.078,13.005c-2.835,-0 -13.102,-5.574 -18.871,-10.267c-2.249,-1.858 -6.063,-4.89 -8.605,-6.845c-8.214,-6.258 -17.21,-16.427 -19.654,-22.294c-3.716,-8.898 0.391,-28.455 7.138,-34.126c1.564,-1.271 7.627,-4.4 13.494,-7.04c14.373,-6.258 15.058,-6.649 14.471,-7.627c-1.955,-3.129 -26.107,5.671 -31.974,11.734c-3.912,4.009 -7.529,11.636 -9.485,19.947c-3.814,16.329 5.867,32.952 29.334,50.064c9.583,7.04 11.147,8.507 10.17,9.289c-0.489,0.391 -4.401,1.467 -8.703,2.445c-11.245,2.347 -16.134,3.52 -20.534,4.693c-2.151,0.587 -6.356,1.467 -9.289,1.956c-13.787,2.347 -14.765,2.151 -12.614,-2.542c0.684,-1.369 0.88,-2.836 0.587,-3.129c-1.174,-1.272 -3.521,1.76 -7.041,9.191c-6.062,12.614 -13.982,23.468 -25.423,34.908c-11.636,11.734 -22.098,18.872 -28.748,19.752c-5.964,0.782 -6.258,-0.489 -6.258,-24.641l0,-20.534l3.618,-10.756c4.009,-12.027 4.107,-12.125 8.312,-21.121c3.129,-6.747 8.605,-13.298 14.96,-17.894c3.325,-2.542 4.596,-2.738 16.134,-3.324c10.561,-0.587 12.223,-0.88 10.365,-1.858c-1.173,-0.783 -6.649,-1.369 -13.2,-1.467c-8.996,-0.293 -11.636,-0 -13.983,1.369c-6.454,3.716 -18.188,16.623 -21.414,23.663c-1.271,2.738 -3.227,7.04 -4.4,9.68c-3.129,7.041 -6.063,7.627 -20.632,4.009c-2.934,-0.684 -10.17,-2.444 -16.134,-3.813c-13.69,-3.227 -18.188,-4.302 -36.179,-9.094c-8.019,-2.151 -17.112,-4.595 -20.046,-5.378c-21.12,-5.573 -28.161,-5.867 -37.45,-1.369c-10.951,5.378 -20.827,12.81 -31.192,23.272c-10.072,10.17 -21.023,18.481 -24.25,18.481c-0.88,0 -1.956,0.391 -2.445,0.88c-1.271,1.076 -12.516,3.814 -19.165,4.596c-7.627,0.88 -8.604,-0.489 -5.769,-8.605c9.289,-27.183 15.156,-39.504 22.001,-46.348c4.791,-4.792 5.085,-4.889 13.396,-6.258c6.943,-1.076 10.267,-1.076 17.112,-0.098c4.791,0.684 9.974,1.564 11.636,2.151c3.618,1.076 6.258,1.173 6.258,0.098c-0,-1.858 -13.885,-5.769 -28.357,-8.018c-4.009,-0.587 -11.538,-2.054 -16.623,-3.129c-5.084,-1.076 -11.049,-2.347 -13.2,-2.738c-2.151,-0.391 -5.671,-1.174 -7.823,-1.76c-13.396,-3.716 -21.609,-4.596 -44.49,-4.498c-16.819,-0 -25.619,0.489 -32.757,1.76c-21.219,3.52 -43.024,12.125 -53.975,21.218c-10.659,8.801 -22.686,25.228 -26.01,35.593c-3.52,11.245 -3.618,15.841 -1.467,66.002c2.347,55.051 2.347,91.915 -0.196,91.915c-0.391,0 -3.031,-4.596 -5.769,-10.169c-5.867,-12.125 -13.493,-22.099 -26.987,-35.397c-10.365,-10.169 -22.197,-18.676 -32.268,-23.272c-5.378,-2.542 -35.984,-11.636 -38.135,-12.223c-17.796,-4.596 -34.126,-5.573 -50.162,-3.129c-9.876,1.565 -11.636,1.076 -10.658,-3.031c2.151,-8.409 46.153,-43.219 61.7,-48.695c25.912,-9.289 37.646,-16.036 45.664,-26.303c2.933,-3.716 8.996,-11.832 13.592,-18.188c12.027,-16.525 24.641,-31.974 29.041,-35.397c2.053,-1.662 9.191,-6.551 15.938,-10.853c16.134,-10.463 16.916,-11.05 15.938,-11.93c-0.684,-0.782 -17.894,0.978 -25.227,2.543c-1.565,0.293 -136.014,26.009 -138.752,26.009c-0.172,0.003 -0.353,0.005 -0.541,0.007c-4.426,-0.434 -7.058,-2.67 -8.311,-6.293c-0,-0 -52.946,-128.359 -51.284,-129.434c1.076,-0.587 131.908,-28.552 141.881,-30.215c3.423,-0.489 3.618,-0.684 5.574,-7.627c4.889,-16.623 21.023,-74.607 19.654,-75.487c-0.88,-0.489 -12.418,1.467 -28.357,4.987c-3.52,0.684 -10.267,2.053 -15.156,2.933c-2.352,0.384 -5.059,1.004 -7.528,1.686c-18.477,3.754 -26.5,2.057 -23.823,-6.681l45.987,-126.541Zm610.97,330.913c-7.725,-3.716 -17.112,-0.391 -20.241,7.333c-4.4,10.952 4.107,21.806 15.645,20.046c8.116,-1.174 12.712,-7.432 11.93,-16.037c-0.587,-5.475 -2.934,-9.191 -7.334,-11.342Zm-412.54,-339.595c-0.782,-1.174 -1.956,-2.054 -2.64,-2.054c-4.303,0.489 -106.778,21.219 -140.023,27.868c-22.294,4.4 -20.73,3.618 -24.152,11.049c-1.663,3.52 -21.023,55.442 -20.534,56.518c0.489,1.467 77.345,-13.689 78.909,-13.983c56.127,-11.342 54.073,-11.049 55.833,-7.236c0.685,1.369 4.694,15.548 4.694,15.548l-6.551,9.582c-10.561,15.352 -12.027,16.819 -18.285,17.894c-13.983,2.347 -35.495,6.258 -43.024,7.725c-9.485,1.956 -9.485,1.956 -12.712,13.983c-1.076,3.911 -15.156,53.486 -13.103,54.268c0.978,0.294 61.994,-8.702 62.58,-8.898c2.836,-1.075 3.521,1.369 4.01,13.69l0.586,12.614l-6.258,12.711c-3.52,6.943 -7.04,14.57 -7.92,16.819c-1.858,4.791 -2.347,4.986 -21.316,8.115c-6.747,1.076 -161.144,27.477 -166.229,28.553c-2.933,0.586 -5.671,1.369 -6.16,1.76c-0.391,0.293 15.449,39.014 18.089,45.468c6.454,15.743 7.041,16.525 10.854,15.645c1.76,-0.293 243.28,-46.837 246.409,-47.522c3.032,-0.684 6.063,-1.662 6.552,-2.346c1.075,-1.272 24.543,-92.502 25.13,-96.022c0.489,-3.129 -20.241,-58.375 -20.241,-59.842c-0,-1.467 19.361,-47.326 20.241,-49.478c0.88,-2.151 1.955,-4.302 2.444,-4.889c1.662,-1.955 0.587,-6.844 -4.693,-20.24c-2.934,-7.725 -21.708,-56.029 -22.49,-57.3Zm216.735,-44.892c-1.295,0.024 -4.461,0.572 -7.385,1.281c-3.227,0.88 -131.614,27.183 -139.827,28.748c-12.908,2.444 -18.09,4.107 -18.09,5.867c-0,0.88 8.409,31.681 13.494,47.815c1.369,4.498 3.129,8.311 3.813,8.605c0.685,0.293 69.425,-12.614 80.474,-14.765c12.712,-2.445 13.494,-2.543 14.472,-1.271c0.587,0.684 -1.467,20.925 -2.249,29.53c-0.88,9.289 -2.053,16.133 -2.738,16.916c-1.173,1.075 -92.11,19.947 -92.501,20.241c-0.978,0.586 -6.943,12.711 -10.952,22.391l-2.835,6.65l2.542,7.529c9.289,27.379 8.507,26.107 15.352,24.543c2.249,-0.489 81.55,-15.352 82.43,-14.961c1.369,0.489 1.466,1.467 0.977,6.063c-0.391,3.031 -1.075,11.049 -1.564,17.894c-1.173,16.623 -1.956,22.098 -3.325,23.174c-1.075,0.88 -70.5,16.427 -72.847,16.818c-2.347,0.489 -4.889,1.369 -5.573,1.956c-1.369,1.173 -11.245,60.233 -11.441,62.971l-0.195,4.889l4.4,-0.097c2.444,-0 141.978,-26.988 144.032,-27.281c2.836,-0.489 4.4,-1.565 6.845,-4.792c2.737,-3.715 48.597,-62.482 48.597,-62.482c-0,-0 -2.934,-140.219 -2.934,-152.441c0,-12.223 -0.391,-23.175 -0.88,-24.446c-0.488,-1.271 -32.17,-41.948 -34.908,-45.175c-2.64,-3.324 -5.769,-6.062 -6.844,-6.16l-0.34,-0.01Zm341.695,-69.61c-0.587,-1.076 -4.694,-1.467 -5.574,-0.587c-0.293,0.293 -276.135,58.767 -278.677,59.158c-5.378,0.978 -10.169,3.129 -9.876,4.498c0.196,0.977 18.383,33.539 25.032,44.686c2.151,3.715 4.498,6.942 5.183,7.236c1.075,0.391 53.291,-9.974 55.735,-10.561c3.129,-0.782 4.694,-0.88 5.476,-0.098c1.075,1.076 0.195,10.072 -2.347,26.597c-0.489,3.52 -25.227,198.105 -25.814,202.016c-0.782,5.085 0.782,5.867 8.311,3.912c3.031,-0.783 101.889,-21.023 102.671,-21.708c1.271,-1.075 1.271,-16.623 0.293,-114.013c-0.587,-61.993 -0.782,-113.035 -0.391,-113.426c0.684,-0.685 78.03,-14.081 81.843,-14.57c4.205,-0.587 7.431,-1.564 8.409,-2.64c1.663,-1.662 26.597,-61.602 27.966,-64.438c1.369,-2.836 2.151,-5.573 1.76,-6.062Zm-253.547,159.579c0.293,-4.107 0.097,-4.694 -1.761,-4.987c-4.302,-0.587 -4.497,0.88 -3.715,29.823c0.391,14.961 0.782,28.064 0.88,29.139c0.098,1.076 0.293,2.836 0.391,3.912c0.391,3.813 3.227,-5.77 4.107,-13.69c1.369,-13.005 3.715,-30.801 4.302,-32.854c0.391,-1.272 -0.195,-2.64 -1.955,-4.205c-2.152,-2.053 -2.543,-3.031 -2.249,-7.138Zm-352.6,-101.399c-1.467,-2.054 -3.521,-3.521 -4.694,-3.521c-1.662,0 -1.858,0.392 -1.173,2.641c0.489,1.564 0.782,6.16 0.782,10.267c-0.098,5.964 -0.587,8.115 -2.249,10.364c-2.738,3.814 -2.64,5.085 0.489,5.085c3.813,0 6.062,-1.662 8.311,-6.062c2.934,-5.672 2.249,-13.885 -1.466,-18.774Zm369.711,-71.381c-2.542,-0.88 -5.182,-1.564 -5.867,-1.467c-1.955,0.098 -3.618,0.978 -3.618,1.956c0,1.173 10.463,14.863 12.125,15.743c0.783,0.391 4.889,0.489 9.29,0.098c6.453,-0.489 7.92,-0.88 7.92,-2.249c-0,-3.227 -11.245,-11.245 -19.85,-14.081Zm-483.431,-24.25c0.489,-1.466 26.694,-1.369 39.112,0.196c15.743,1.955 18.579,9.191 5.965,15.645c-4.4,2.249 -5.867,2.444 -16.623,2.347c-15.352,-0 -19.556,-1.858 -25.13,-10.854c-2.151,-3.422 -3.618,-6.747 -3.324,-7.334Zm-40.873,-2.835c5.378,-1.956 19.165,-2.543 23.272,-0.978c1.369,0.587 2.738,1.76 2.934,2.738c1.173,4.009 1.564,10.658 0.88,11.831c-0.685,0.88 -4.401,1.369 -13.494,1.467c-14.179,0.196 -20.046,-0.978 -22.49,-4.694c-2.836,-4.302 -0.489,-7.04 8.898,-10.364Zm-15.449,-87.221c2.64,-0.783 5.28,-1.272 5.964,-1.076c0.783,0.196 1.956,0.391 2.738,0.391c0.88,0 2.738,2.836 4.498,6.454c2.738,5.867 2.934,7.04 2.445,13.396c-0.391,4.107 -1.663,9.485 -3.032,12.907c-3.226,7.529 -3.129,11.734 0,17.698c5.574,10.463 12.712,16.623 29.53,25.326c3.814,1.955 7.041,4.009 7.041,4.498c-0,1.271 -5.183,1.075 -16.232,-0.587c-12.027,-1.76 -18.09,-3.911 -22.979,-8.116c-5.573,-4.791 -7.431,-9.778 -8.8,-23.272c-1.076,-10.756 -1.467,-12.125 -4.889,-17.894c-3.911,-6.453 -4.498,-9.387 -3.911,-19.654c0.391,-6.062 2.151,-8.409 7.627,-10.071Zm152.832,-31.584c5.378,-1.467 8.996,-0.88 14.472,2.249c4.595,2.64 5.475,5.183 1.662,5.183c-3.227,-0 -3.129,2.053 0.391,6.062c5.574,6.454 6.356,10.756 2.836,15.449c-1.76,2.445 -1.956,3.227 -0.978,5.378c2.249,4.987 0.88,15.157 -3.129,22.588c-4.498,8.605 -19.361,18.578 -29.335,19.654c-8.018,0.978 -15.449,-3.227 -19.262,-10.658c-2.836,-5.574 -2.934,-18.383 -0.098,-23.859c2.542,-4.889 7.333,-10.169 9.387,-10.169c0.782,-0 3.324,2.542 5.671,5.573c2.249,3.129 5.183,6.845 6.551,8.312c2.347,2.64 6.258,3.618 7.432,1.858c0.489,-0.88 -5.183,-6.943 -6.454,-6.943c-1.271,0 -3.813,-6.649 -3.227,-8.213c0.783,-2.054 2.152,-1.956 6.161,0.489c3.813,2.346 10.56,2.248 12.125,-0.196c3.031,-4.791 -2.64,-9.094 -13.494,-10.267c-6.258,-0.685 -10.267,-3.227 -10.267,-6.356c-0,-4.4 11.929,-14.178 19.556,-16.134Zm123.596,-62.971c5.964,-0.391 11.44,-0.782 12.125,-0.88c1.466,-0.098 1.564,1.467 0.097,2.444c-0.586,0.392 -2.444,0.978 -4.204,1.369c-1.662,0.391 -8.312,2.249 -14.765,4.107c-6.454,1.858 -15.45,4.4 -20.045,5.574c-16.525,4.302 -38.82,12.027 -58.571,20.24c-33.148,13.885 -48.793,22.295 -51.825,28.259c-0.88,1.565 -3.618,4.889 -6.062,7.334c-5.965,5.867 -19.165,11.44 -59.549,25.13c-15.938,5.476 -24.348,6.062 -30.508,2.347c-2.053,-1.272 -3.715,-2.641 -3.715,-3.129c-0,-2.445 9.191,-5.672 29.334,-10.365c3.52,-0.783 7.92,-1.76 9.778,-2.249c1.858,-0.391 6.063,-1.271 9.289,-1.956c13.299,-2.64 28.748,-7.138 34.028,-10.071c4.009,-2.249 7.823,-5.672 13.201,-11.832c8.507,-9.876 16.525,-15.841 30.801,-23.076c24.445,-12.419 61.602,-24.739 93.968,-31.29c3.129,-0.685 10.658,-1.467 16.623,-1.956Zm91.425,-70.109c12.614,-4.401 22.001,-1.467 31.877,10.169c7.334,8.507 10.267,14.374 10.267,20.045c0,4.009 0.978,9.289 4.987,26.694c2.249,9.974 4.205,25.326 3.52,27.379c-1.075,2.64 -3.422,1.565 -7.724,-3.715c-8.801,-10.854 -21.512,-19.263 -29.237,-19.263c-3.031,-0 -4.987,-0.587 -5.867,-1.565c-1.173,-1.467 -0.782,-2.053 2.836,-5.182c4.009,-3.52 5.378,-6.943 2.738,-6.943c-2.738,0 -9.974,3.814 -16.232,8.409c-3.52,2.64 -9.387,6.943 -13.201,9.681l-6.844,4.791l-15.157,0.391c-19.36,0.489 -19.556,0.391 -14.178,-9.876c2.054,-3.813 4.791,-10.951 5.965,-15.743c1.271,-4.791 2.933,-9.387 3.716,-10.169c1.368,-1.369 1.564,-1.173 2.542,1.174c1.173,3.226 2.933,2.933 4.889,-0.978c3.129,-6.063 9.778,-16.036 13.298,-19.948c6.063,-6.649 14.961,-12.907 21.805,-15.351Z"/>
</svg>
